<svg id="Agrupar_1" data-name="Agrupar 1" xmlns="http://www.w3.org/2000/svg" width="960" height="237" viewBox="0 0 960 237">
  <defs>
    <style>
      .cls-1 {
        fill: #d7fffd;
      }

      .cls-1, .cls-2, .cls-3 {
        fill-rule: evenodd;
      }

      .cls-2 {
        fill: #03b1c6;
      }

      .cls-3 {
        fill: #84c3be;
      }
    </style>
  </defs>
  <path id="Pay" class="cls-1" d="M602.3,179.394V43.468h40.652q20.211,0,20.213,20.213,0,24.983-40.88,32.363l4.315,26.8q68.019-10.446,68.02-60.07,0-45.761-49.737-45.763H572.208V179.394H602.3ZM752.111,48.01l25.55,60.979h-32.7l-10.334,26.118h53.939l18.509,44.287h32.363L769.03,17.01H736.667L667.739,179.394h30.887Zm108.831,74.606v56.778h30.092V122.616L950.764,17.01H919.536l-42.924,78.24L830.963,17.01H798.6Z"/>
  <path id="Volga" class="cls-2" d="M150.832,17.01L100.64,141.353,50.335,17.01H14.566L82.7,179.394h32.363l71.2-162.384H150.832Zm41.479,102.313q0-36.451,28.957-36.451t28.956,36.451q0,37.362-28.956,37.36t-28.957-37.36h0Zm28.957,60.3q59.046,0,59.048-59.844,0-59.957-59.048-59.957t-59.049,59.957q0.227,59.846,59.049,59.844h0ZM289.074,17.01V179.394h30.092V17.01H289.074Zm120.836,129a56.452,56.452,0,0,1-25.323,6.132q-26.913,0-26.912-33.271,0-34.408,31.227-34.407,13.628,0,21.008,2.725v58.821ZM440,65.044q-29.412-4.881-50.191-4.883-61.89,0-61.888,58.935,0,58.028,53.144,58.026a73.151,73.151,0,0,0,28.843-5.677q0,27.254-32.477,27.253-21.916,0-39.29-5.678v23.847q17.034,5.676,39.063,5.678,62.794,0,62.8-52.236V65.044Zm52.476,114.35a59.307,59.307,0,0,0,34.294-10.675l10.674,10.675h17.487V99.451q0-39.288-53.143-39.29-19.533,0-43.378,5.678V89.685q23.846-5.677,43.378-5.678,23.051,0,23.051,16.012v8.97a132.1,132.1,0,0,0-24.3-2.271q-51.781,0-51.782,35.543,0,37.132,43.719,37.133h0Zm32.363-49.965v19.078a46.407,46.407,0,0,1-27.821,9.311q-18.169,0-18.168-15.9,0-14.76,21.689-14.762a123.912,123.912,0,0,1,24.3,2.271h0Z"/>
  <path id="payment_solutions" data-name="payment solutions" class="cls-3" d="M467.88,188.816H454.964V213.4h3.706v-8.219h9.21c5.945,0,8.88-2.716,8.88-8.183S473.825,188.816,467.88,188.816Zm-9.21,13.357V191.825h9.21q4.954,0,4.954,5.174t-4.954,5.174h-9.21ZM487.7,190.944L478.564,213.4h4.183l2.2-5.541h13.063l2.2,5.541H504.4l-9.137-22.457A4.135,4.135,0,0,0,487.7,190.944Zm-1.541,13.907,4.77-12.035a0.552,0.552,0,0,1,1.1,0l4.77,12.035H486.16Zm17.655-16.035,10.9,16.366V213.4h3.706v-8.219l10.9-16.366h-4.4l-8.329,12.88-8.367-12.88h-4.4Zm30.756,0V213.4h3.669V195.164l7.413,11.779a3,3,0,0,0,5.357,0l7.412-11.779V213.4h3.706V188.816h-3.779l-9.614,15.448a0.416,0.416,0,0,1-.734,0l-9.614-15.448h-3.816Zm34.647,0v18.971A5.639,5.639,0,0,0,575.2,213.4h13.32v-3.009h-12.4a3.1,3.1,0,0,1-3.192-3.192v-4.587H587.9V199.6H572.924v-7.779h15.6v-3.009h-19.3Zm25.911,0V213.4h3.6V194.247L613.807,213.4h3.6V188.816h-3.6v19.155l-15.082-19.155h-3.6Zm50.461,0H623.464v3.009h9.21V213.4h3.706V191.825h9.21v-3.009Zm36.152,4.257v-3.266a27.488,27.488,0,0,0-8.77-1.321c-7.118,0-10.934,2.275-10.934,7.082,0,3.889,2.531,5.871,10.127,7.229,5.248,0.954,7.009,1.981,7.009,4.109,0,2.386-2.165,3.67-7.082,3.67a33.653,33.653,0,0,1-9.5-1.431v3.266a34.526,34.526,0,0,0,9.577,1.321c7.449,0,10.935-2.422,10.935-7.009,0-3.963-2.605-5.908-10.384-7.339-5.028-.917-6.752-1.981-6.752-4.073,0-2.385,2.312-3.67,7.119-3.67A26.756,26.756,0,0,1,681.742,193.073Zm19.234,20.659c-8.44,0-12.623-4.184-12.623-12.623s4.183-12.623,12.623-12.623,12.623,4.183,12.623,12.623S709.416,213.732,700.976,213.732Zm-8.807-12.623q0,9.466,8.807,9.467t8.806-9.467q0-9.468-8.806-9.468T692.169,201.109Zm27.858-12.293v18.971a5.639,5.639,0,0,0,5.981,5.614h12.953v-3.009H726.925a3.1,3.1,0,0,1-3.192-3.192V188.816h-3.706Zm24.076,0v15.375c0,6.238,4.7,9.541,10.972,9.541s10.935-3.3,10.935-9.541V188.816H762.3v15.558c0,4.367-3.119,6.2-7.229,6.2s-7.266-1.835-7.266-6.2V188.816H744.1Zm50.094,0H772.07v3.009h9.211V213.4h3.706V191.825h9.21v-3.009Zm6.244,0V213.4h3.706V188.816h-3.706Zm22.753,24.916c-8.44,0-12.623-4.184-12.623-12.623s4.183-12.623,12.623-12.623,12.623,4.183,12.623,12.623S831.634,213.732,823.194,213.732Zm-8.807-12.623q0,9.466,8.807,9.467T832,201.109q0-9.468-8.807-9.468T814.387,201.109Zm27.674-12.293V213.4h3.6V194.247L860.739,213.4h3.6V188.816h-3.6v19.155l-15.082-19.155h-3.6Zm47.966,4.257v-3.266a27.492,27.492,0,0,0-8.77-1.321c-7.119,0-10.935,2.275-10.935,7.082,0,3.889,2.532,5.871,10.128,7.229,5.247,0.954,7.008,1.981,7.008,4.109,0,2.386-2.165,3.67-7.082,3.67a33.663,33.663,0,0,1-9.5-1.431v3.266a34.528,34.528,0,0,0,9.578,1.321c7.449,0,10.935-2.422,10.935-7.009,0-3.963-2.606-5.908-10.385-7.339-5.027-.917-6.752-1.981-6.752-4.073,0-2.385,2.312-3.67,7.119-3.67A26.762,26.762,0,0,1,890.027,193.073Z"/>
</svg>
