<svg xmlns="http://www.w3.org/2000/svg" xmlns:xlink="http://www.w3.org/1999/xlink" viewBox="0 0 635.3 193.34"><defs><style>.cls-1{fill:url(#Nova_amostra_de_gradiente_3);}.cls-2{fill:url(#Nova_amostra_de_gradiente_3-2);}.cls-3{fill:url(#Nova_amostra_de_gradiente_3-3);}.cls-4{fill:url(#Nova_amostra_de_gradiente_3-4);}.cls-5{fill:url(#Nova_amostra_de_gradiente_3-5);}.cls-6{fill:url(#Nova_amostra_de_gradiente_3-6);}.cls-7{fill:url(#Nova_amostra_de_gradiente_3-7);}.cls-8{fill:url(#Nova_amostra_de_gradiente_3-8);}.cls-9{fill:url(#Nova_amostra_de_gradiente_3-9);}.cls-10{fill:url(#Nova_amostra_de_gradiente_3-10);}.cls-11{fill:url(#Nova_amostra_de_gradiente_3-11);}.cls-12{fill:url(#Nova_amostra_de_gradiente_3-12);}.cls-13{fill:url(#Nova_amostra_de_gradiente_3-13);}.cls-14{fill:url(#Nova_amostra_de_gradiente_3-14);}.cls-15{fill:url(#Nova_amostra_de_gradiente_3-15);}.cls-16{fill:url(#Nova_amostra_de_gradiente_3-16);}.cls-17{fill:url(#Nova_amostra_de_gradiente_3-17);}.cls-18{fill:url(#Nova_amostra_de_gradiente_3-18);}.cls-19{fill:url(#Nova_amostra_de_gradiente_3-19);}</style><linearGradient id="Nova_amostra_de_gradiente_3" x1="-37.87" y1="149.01" x2="606.17" y2="-29.34" gradientUnits="userSpaceOnUse"><stop offset="0" stop-color="#ff8000"/><stop offset="0.04" stop-color="#f77a06"/><stop offset="0.38" stop-color="#b04638"/><stop offset="0.67" stop-color="#7c205d"/><stop offset="0.88" stop-color="#5c0973"/><stop offset="1" stop-color="#50007c"/></linearGradient><linearGradient id="Nova_amostra_de_gradiente_3-2" x1="-43.26" y1="129.56" x2="600.78" y2="-48.79" xlink:href="#Nova_amostra_de_gradiente_3"/><linearGradient id="Nova_amostra_de_gradiente_3-3" x1="-23.13" y1="202.24" x2="620.91" y2="23.89" xlink:href="#Nova_amostra_de_gradiente_3"/><linearGradient id="Nova_amostra_de_gradiente_3-4" x1="-62.2" y1="61.15" x2="581.84" y2="-117.2" xlink:href="#Nova_amostra_de_gradiente_3"/><linearGradient id="Nova_amostra_de_gradiente_3-5" x1="-66.68" y1="44.97" x2="577.36" y2="-133.38" xlink:href="#Nova_amostra_de_gradiente_3"/><linearGradient id="Nova_amostra_de_gradiente_3-6" x1="-27.61" y1="186.06" x2="616.43" y2="7.71" xlink:href="#Nova_amostra_de_gradiente_3"/><linearGradient id="Nova_amostra_de_gradiente_3-7" x1="-47.74" y1="113.38" x2="596.3" y2="-64.97" xlink:href="#Nova_amostra_de_gradiente_3"/><linearGradient id="Nova_amostra_de_gradiente_3-8" x1="-35.41" y1="157.87" x2="608.62" y2="-20.48" xlink:href="#Nova_amostra_de_gradiente_3"/><linearGradient id="Nova_amostra_de_gradiente_3-9" x1="-32.24" y1="169.33" x2="611.8" y2="-9.01" xlink:href="#Nova_amostra_de_gradiente_3"/><linearGradient id="Nova_amostra_de_gradiente_3-10" x1="-29.43" y1="179.49" x2="614.61" y2="1.14" xlink:href="#Nova_amostra_de_gradiente_3"/><linearGradient id="Nova_amostra_de_gradiente_3-11" x1="-25.78" y1="192.67" x2="618.26" y2="14.32" xlink:href="#Nova_amostra_de_gradiente_3"/><linearGradient id="Nova_amostra_de_gradiente_3-12" x1="-21.72" y1="207.33" x2="622.32" y2="28.98" xlink:href="#Nova_amostra_de_gradiente_3"/><linearGradient id="Nova_amostra_de_gradiente_3-13" x1="-18.7" y1="218.23" x2="625.34" y2="39.88" xlink:href="#Nova_amostra_de_gradiente_3"/><linearGradient id="Nova_amostra_de_gradiente_3-14" x1="-16.43" y1="226.41" x2="627.6" y2="48.06" xlink:href="#Nova_amostra_de_gradiente_3"/><linearGradient id="Nova_amostra_de_gradiente_3-15" x1="-12.75" y1="239.73" x2="631.29" y2="61.38" xlink:href="#Nova_amostra_de_gradiente_3"/><linearGradient id="Nova_amostra_de_gradiente_3-16" x1="-21.24" y1="209.06" x2="622.8" y2="30.71" xlink:href="#Nova_amostra_de_gradiente_3"/><linearGradient id="Nova_amostra_de_gradiente_3-17" x1="-16.76" y1="225.24" x2="627.28" y2="46.89" xlink:href="#Nova_amostra_de_gradiente_3"/><linearGradient id="Nova_amostra_de_gradiente_3-18" x1="-13.8" y1="235.93" x2="630.24" y2="57.58" xlink:href="#Nova_amostra_de_gradiente_3"/><linearGradient id="Nova_amostra_de_gradiente_3-19" x1="-10.07" y1="249.39" x2="633.96" y2="71.04" xlink:href="#Nova_amostra_de_gradiente_3"/></defs><g id="Camada_2" data-name="Camada 2"><g id="Camada_1-2" data-name="Camada 1"><path class="cls-1" d="M196.59,91.78c12.28-6.33,21.16-24.74,21.16-41.14C217.75,14.38,191.1,0,150.87,0H125.78V41.43h25.09c15.93,0,25.08,4,25.08,15.82,0,11.22-9.15,16.4-25.08,16.4H125.78v41.43h29.27c17.76,0,29.26,5.47,29.26,18.13,0,13.23-11.5,18.7-29.26,18.7H125.78v41.43H166c37.63,0,60.09-24.74,60.09-58.12C226.11,116,217,99,196.59,91.78Z"/><rect class="cls-2" x="54.73" y="73.65" width="58.14" height="41.43"/><rect class="cls-3" x="54.73" y="151.91" width="58.14" height="41.43"/><rect class="cls-4" x="54.73" width="58.14" height="41.43"/><polygon class="cls-5" points="0 41.43 41.81 41.43 41.82 41.43 41.82 0 0 0 0 41.43"/><polygon class="cls-6" points="0 151.91 0 193.34 41.82 193.34 41.82 151.91 41.81 151.91 0 151.91"/><polygon class="cls-7" points="0 73.65 0 115.08 41.76 115.08 41.82 115.08 41.82 73.65 41.76 73.65 0 73.65"/><path class="cls-8" d="M291.16,55.68v5.57h14.47V72.39H291.16V78H309V90.2H277.79V43.43H309V55.68Z"/><path class="cls-9" d="M362.42,90.2H346.69l-9.32-14.75L328,90.2H312.31l15.87-24.49L313.49,43.43h15.73l8.15,13.09,8.14-13.09h15.73L346.55,65.71Z"/><path class="cls-10" d="M402.51,43.43V55.68H390.25V90.2H376.89V55.68H364.64V43.43Z"/><path class="cls-11" d="M449.27,90.2H433.68L424,75.73h-2.58V90.2H408.07V43.43h21.16C441.41,43.43,447,50,447,59c0,6.89-3.34,12.95-9.25,15.45ZM433.68,59.58c0-3.41-2.57-5-5.71-5h-6.54v10H428C431.11,64.59,433.68,63.06,433.68,59.58Z"/><path class="cls-12" d="M501.6,90.2H488l-3-7.79h-18.1l-3,7.79H450.38l19.35-46.77h12.53ZM481.14,72.39,476,59l-5.15,13.37Z"/><path class="cls-13" d="M537.24,74.88l5.08,11.34c-4.17,3.62-10.51,5.64-16,5.64-14.47,0-26.31-11-26.31-24.5s11.84-24.5,26.31-24.5c5.5,0,11.84,2,16,5.57l-5.08,11.41a14.11,14.11,0,0,0-10.58-4.73c-7.31,0-13.29,5.5-13.29,12.25s6,12.25,13.29,12.25A14.11,14.11,0,0,0,537.24,74.88Z"/><path class="cls-14" d="M583,44V56.23H570.71V90.75H557.35V56.23H545.1V44Z"/><path class="cls-15" d="M635.3,67.36c0,13.5-11.49,24.5-25.62,24.5s-25.61-11-25.61-24.5,11.49-24.5,25.61-24.5S635.3,53.86,635.3,67.36Zm-13.37,0a12.25,12.25,0,1,0-12.25,12.25A12.26,12.26,0,0,0,621.93,67.36Z"/><path class="cls-16" d="M317.88,131.82c0,8.07-6,14.06-16,14.06H277.79V99.11h20c10.72,0,17.82,4.17,17.82,12.25,0,4.66-2.37,8.21-5.64,9.39C315.93,122.07,317.88,127.16,317.88,131.82Zm-26.72-14.9h5.56c3.56,0,5.57-1.18,5.57-3.89s-2-3.9-5.57-3.9h-5.56Zm13.36,14.48c0-3.06-2.65-4.45-6.68-4.45h-6.68v8.91h6.68C301.87,135.86,304.52,134.46,304.52,131.4Z"/><path class="cls-17" d="M370.22,145.88H356.64l-3-7.8H335.56l-3,7.8H319l19.35-46.77h12.53Zm-20.47-17.82L344.6,114.7l-5.15,13.36Z"/><path class="cls-18" d="M418.09,99.11v46.77H404.73l-17.82-25.62v25.62H373.55V99.11h13.36l17.82,25.61V99.11Z"/><path class="cls-19" d="M470.43,145.88H453.72l-14.47-20v20H425.88V99.11h13.37v17.81l13.36-17.81h16.7L451.5,121.38Z"/></g></g></svg>