<?xml version="1.0" encoding="UTF-8"?>
<!DOCTYPE svg PUBLIC "-//W3C//DTD SVG 1.1//EN" "http://www.w3.org/Graphics/SVG/1.1/DTD/svg11.dtd">
<!-- Creator: CorelDRAW 2020 (64 Bit) -->
<svg xmlns="http://www.w3.org/2000/svg" xml:space="preserve" width="123.496mm" height="91.4785mm" version="1.1" style="shape-rendering:geometricPrecision; text-rendering:geometricPrecision; image-rendering:optimizeQuality; fill-rule:evenodd; clip-rule:evenodd"
viewBox="0 0 12335.36 9137.31"
 xmlns:xlink="http://www.w3.org/1999/xlink"
 xmlns:xodm="http://www.corel.com/coreldraw/odm/2003">
 <defs>
  <style type="text/css">
   <![CDATA[
    .fil0 {fill:none}
    .fil1 {fill:#4C1C72;fill-rule:nonzero}
    .fil2 {fill:#B57DDB;fill-rule:nonzero}
   ]]>
  </style>
 </defs>
 <g id="Camada_x0020_1">
  <metadata id="CorelCorpID_0Corel-Layer"/>
  <rect class="fil0" x="0" y="-0" width="12335.36" height="9137.31"/>
  <g id="_2496329770784">
   <path class="fil1" d="M1025.62 5234.49l-454.54 -1154.94 342.4 0 315.42 873.7 -131.32 0 315.42 -873.7 342.4 0 -454.55 1154.94 -275.24 0zm1404.83 25.19c-122.93,0 -229.07,-26.99 -319.61,-81.56 -90.56,-53.97 -160.12,-127.12 -209.28,-218.88 -49.77,-91.74 -74.36,-193.09 -74.36,-304.62 0,-115.74 25.79,-218.28 77.36,-308.82 51.57,-89.95 121.13,-161.31 208.68,-213.48 86.95,-52.17 185.9,-78.55 296.23,-78.55 91.74,0 172.7,14.39 243.46,43.17 70.16,29.39 130.13,69.56 178.69,121.73 48.57,52.17 85.15,112.74 110.94,181.1 25.18,68.36 37.78,142.72 37.78,223.07 0,22.78 -1.2,44.97 -3,66.56 -2.4,22.18 -6.59,40.77 -12,56.36l-864.7 0 0 -232.66 685.41 0 -150.52 109.73c13.79,-60.57 13.19,-114.54 -1.8,-161.91 -15.59,-47.37 -42.57,-84.54 -81.56,-112.13 -38.98,-26.99 -86.35,-40.77 -142.72,-40.77 -55.17,0 -102.54,13.18 -142.12,40.17 -39.58,26.99 -68.96,65.96 -88.75,118.13 -19.8,52.17 -27.59,115.74 -23.39,190.69 -5.39,64.77 2.4,121.73 23.39,170.9 20.99,49.77 53.97,88.15 97.74,115.73 43.78,27.59 96.55,41.38 158.31,41.38 56.37,0 104.95,-11.4 145.12,-34.18 40.17,-22.18 71.36,-53.37 94.14,-92.95l253.66 120.53c-22.78,56.37 -58.16,105.55 -106.74,148.12 -48.57,42.58 -106.14,74.95 -172.7,98.35 -66.56,23.38 -139.12,34.78 -217.68,34.78zm1302.46 0c-115.74,0 -219.48,-26.39 -311.82,-79.16 -92.35,-52.77 -165.51,-125.33 -220.08,-217.07 -54.57,-91.75 -81.56,-194.3 -81.56,-308.82 0,-113.94 26.99,-216.48 80.96,-307.63 53.37,-90.55 127.12,-162.51 220.08,-214.68 92.94,-52.17 196.68,-78.55 312.42,-78.55 86.35,0 166.1,14.99 239.86,44.37 73.16,29.99 136.11,71.37 188.29,124.14 52.17,52.77 89.35,115.13 111.53,187.09l-275.24 118.72c-19.79,-58.16 -52.77,-103.74 -100.14,-137.92 -47.38,-33.58 -101.94,-50.37 -164.3,-50.37 -54.57,0 -103.74,13.19 -146.32,40.18 -43.17,26.98 -77.35,64.17 -101.94,112.13 -24.58,47.97 -37.18,103.14 -37.18,164.91 0,61.76 12.6,116.94 37.18,164.9 24.59,47.97 58.77,85.15 101.94,112.14 42.58,26.98 91.75,40.17 146.32,40.17 63.56,0 118.73,-16.79 165.5,-50.97 46.18,-33.58 79.16,-79.15 98.95,-137.32l275.24 120.53c-20.99,67.76 -57.56,128.93 -109.73,182.3 -52.17,53.37 -115.14,95.34 -188.29,125.33 -73.76,30.58 -154.11,45.58 -241.66,45.58zm1282.06 -12.6c-139.72,0 -247.65,-37.78 -324.42,-113.34 -77.35,-74.95 -115.74,-180.49 -115.74,-316.02l0 -463.54 -194.29 0 0 -274.64 10.2 0c59.36,0 104.94,-14.98 136.72,-44.37 31.78,-29.39 47.37,-74.35 47.37,-133.73l0 -84.55 317.22 0 0 262.65 271.05 0 0 274.64 -271.05 0 0 442.55c0,39.57 7.19,72.56 21.59,98.35 13.79,25.78 35.98,45.57 65.36,58.16 29.39,12.6 65.96,19.19 109.73,19.19 10.2,0 21.6,-0.6 34.18,-2.4 12.6,-1.8 26.39,-3 40.18,-4.2l0 268.64c-21,3 -44.98,5.4 -71.97,8.4 -26.98,3 -52.17,4.2 -76.15,4.2zm907.28 12.6c-114.54,0 -218.28,-26.39 -311.83,-78.56 -94.14,-52.17 -168.5,-123.53 -224.27,-214.67 -55.77,-90.55 -83.94,-193.69 -83.94,-309.42 0,-116.94 28.18,-220.68 83.94,-311.22 55.78,-89.95 130.13,-161.31 224.27,-213.48 93.55,-52.17 197.29,-78.55 311.83,-78.55 114.53,0 218.27,26.38 311.22,78.55 92.94,52.17 167.3,123.54 223.07,213.48 55.77,90.55 83.34,194.29 83.34,311.22 0,115.74 -27.58,218.88 -83.34,309.42 -55.78,91.14 -130.13,162.5 -223.07,214.67 -92.95,52.17 -196.69,78.56 -311.22,78.56zm0 -285.44c58.16,0 108.53,-13.19 151.7,-40.17 42.58,-26.99 76.76,-64.17 101.34,-112.14 24.59,-47.96 36.58,-103.14 36.58,-164.9 0,-61.77 -11.99,-116.94 -36.58,-164.31 -24.58,-47.37 -58.76,-84.55 -101.34,-112.13 -43.17,-26.99 -93.54,-40.78 -151.7,-40.78 -58.17,0 -108.54,13.79 -152.31,40.78 -43.78,27.58 -77.96,64.77 -102.54,112.13 -24.59,47.38 -37.18,102.54 -37.18,164.31 0,61.76 12.59,116.94 37.18,164.9 24.58,47.97 58.76,85.15 102.54,112.14 43.77,26.98 94.14,40.17 152.31,40.17zm804.13 260.25l0 -1154.94 296.23 0 0 277.04 -20.99 -40.17c25.19,-97.15 67.16,-163.1 125.92,-197.88 58.17,-34.18 127.73,-51.57 208.08,-51.57l67.76 0 0 274.64 -99.54 0c-77.36,0 -140.33,23.38 -188.29,70.76 -47.97,47.37 -71.96,114.53 -71.96,200.28l0 621.84 -317.22 0zm1373.22 25.19c-122.93,0 -229.08,-26.99 -319.62,-81.56 -90.55,-53.97 -160.11,-127.12 -209.28,-218.88 -49.77,-91.74 -74.35,-193.09 -74.35,-304.62 0,-115.74 25.78,-218.28 77.35,-308.82 51.57,-89.95 121.13,-161.31 208.68,-213.48 86.95,-52.17 185.9,-78.55 296.23,-78.55 91.75,0 172.7,14.39 243.47,43.17 70.16,29.39 130.12,69.56 178.69,121.73 48.57,52.17 85.15,112.74 110.93,181.1 25.19,68.36 37.79,142.72 37.79,223.07 0,22.78 -1.21,44.97 -3.01,66.56 -2.4,22.18 -6.59,40.77 -11.99,56.36l-864.7 0 0 -232.66 685.4 0 -150.51 109.73c13.78,-60.57 13.18,-114.54 -1.81,-161.91 -15.58,-47.37 -42.57,-84.54 -81.55,-112.13 -38.99,-26.99 -86.35,-40.77 -142.73,-40.77 -55.17,0 -102.53,13.18 -142.12,40.17 -39.57,26.99 -68.96,65.96 -88.75,118.13 -19.79,52.17 -27.58,115.74 -23.38,190.69 -5.4,64.77 2.4,121.73 23.38,170.9 20.99,49.77 53.97,88.15 97.75,115.73 43.77,27.59 96.54,41.38 158.31,41.38 56.36,0 104.94,-11.4 145.11,-34.18 40.18,-22.18 71.36,-53.37 94.15,-92.95l253.66 120.53c-22.79,56.37 -58.17,105.55 -106.75,148.12 -48.56,42.58 -106.14,74.95 -172.7,98.35 -66.56,23.38 -139.12,34.78 -217.67,34.78z"/>
   <path class="fil2" d="M11290.66 5331.59l-329.39 0 -271.42 -333.77 171.65 -228.9 429.15 562.67zm396.44 -1773.83l-874.13 0 -228.03 314.72 181.19 238.41 209.82 -276.56 324.25 9.54 -777.25 947 -171.36 -203.14 171.36 -197.88 90.62 102.51 152.57 -190.73 -610.35 -772.47 -778.57 0c-91.84,0 -142.67,106.43 -84.88,177.85l634.57 785.34 162.12 -200.26 -352.85 -448.23 318.71 0 274.65 324.25 -1035.68 1322.84c-37.18,47.58 -3.34,117.19 57.13,117.19l773.52 0c32.52,0 63.43,-14.29 84.4,-39.18l232.98 -275.52 -181.19 -219.34 -190.74 257.48 -343.32 9.54 457.77 -581.75 615.4 789.65c29.09,37.29 73.81,59.12 121.11,59.12l762.18 0c49.22,0 77.44,-55.89 48.26,-95.46l-682.17 -924.96 698.85 -905.88c39.09,-50.65 2.96,-124.09 -60.94,-124.09z"/>
  </g>
 </g>
</svg>
